<svg
              version="1.1"
              id="Layer_1"
              xmlns="http://www.w3.org/2000/svg"
              xmlns:xlink="http://www.w3.org/1999/xlink"
              x="0px"
              y="0px"
              width="40"
              height="40"
              viewBox="0 0 720 720"
              enable-background="new 0 0 720 720"
              xml:space="preserve"
            >
              <path
                fill="#D87628"
                opacity="1.000000"
                stroke="none"
                d="M113.019287,250.979980 
	C89.431900,230.160172 73.350273,204.546143 67.275970,173.716537 
	C60.962795,141.674530 65.348854,110.617859 81.641899,81.880516 
	C100.982216,47.768448 130.093979,26.136370 167.842087,16.150871 
	C182.506775,12.271627 197.722473,11.758245 212.626266,13.234041 
	C238.604431,15.806437 262.383240,25.008867 282.885406,41.520668 
	C290.176178,47.392433 296.781769,54.114925 303.953979,60.946056 
	C304.372894,61.706818 304.602356,61.889854 304.896240,61.992161 
	C304.896240,61.992161 305.013184,61.991394 305.130127,62.246246 
	C305.453918,62.748985 305.717590,62.892605 306.038116,62.931953 
	C306.038116,62.931953 306.067993,62.925129 306.118408,63.261879 
	C306.770905,64.399689 307.372986,65.200745 307.975098,66.001801 
	C307.975098,66.001801 308.008850,65.990601 308.018738,66.367783 
	C308.747681,68.231224 309.294983,69.833763 310.211090,71.186554 
	C328.563049,98.286140 336.616241,128.043198 333.037964,160.683594 
	C329.037750,197.173111 312.803650,227.266129 284.512756,250.581650 
	C263.532227,267.872467 239.378159,277.801544 212.139893,280.228943 
	C184.074432,282.730072 157.868057,277.061432 133.343292,263.330017 
	C127.869034,260.264954 122.444260,257.111542 116.996704,253.998795 
	C116.996704,253.998795 117.000610,253.999390 116.908119,253.674774 
	C115.550179,252.560120 114.284729,251.770050 113.019287,250.979980 
z"
              />
              <path
                fill="#D87628"
                opacity="1.000000"
                stroke="none"
                d="
M409.975342,237.007187 
	C409.636139,236.920776 409.373871,236.729095 409.042053,235.990067 
	C408.752838,235.283478 408.547058,235.083923 408.278259,234.949371 
	C402.176727,223.190842 405.258484,211.577728 408.535889,199.823425 
	C414.519287,178.364120 420.194580,156.818832 425.988617,135.306778 
	C432.462799,111.269455 438.920990,87.227829 445.396484,63.190857 
	C448.569550,51.412518 451.169220,39.437199 455.094269,27.914106 
	C460.732056,11.362979 472.526245,3.498163 489.693481,7.648430 
	C528.733276,17.086521 567.371948,28.183424 606.176086,38.597389 
	C615.437805,41.082985 624.863159,43.076569 633.929688,46.136635 
	C642.166321,48.916611 649.270752,53.715961 653.053894,62.973999 
	C654.482971,72.403702 654.380554,80.923218 652.061951,89.487427 
	C641.267761,129.358047 630.696106,169.288864 619.936523,209.168900 
	C614.861511,227.979050 609.926147,246.841171 604.207581,265.458649 
	C599.964905,279.271027 589.475281,286.285004 575.151794,285.919098 
	C570.548706,285.801514 565.868896,284.959534 561.403259,283.774078 
	C520.192505,272.833954 478.979431,261.896393 437.876190,250.562164 
	C430.453278,248.515289 423.468140,244.793839 416.407837,241.567688 
	C414.059418,240.494598 412.108154,238.552185 409.975342,237.007187 
z"
              />
              <path
                fill="#D87628"
                opacity="1.000000"
                stroke="none"
                d="
M46.309349,690.008789 
	C37.478672,678.700745 32.344757,665.788757 30.066895,651.733704 
	C29.332605,647.202881 29.044132,642.552917 29.042110,637.957275 
	C28.988779,516.803894 28.999811,395.650543 29.000051,274.497162 
	C29.000067,266.855591 32.794338,262.330139 40.305397,262.118622 
	C45.367733,261.976044 50.460217,262.904266 55.777893,264.044922 
	C60.378925,270.831024 60.035320,277.814148 60.032497,284.825287 
	C59.985699,401.059753 59.896339,517.294495 60.205673,633.528137 
	C60.229031,642.303162 63.071110,651.094360 64.887657,659.818787 
	C65.208961,661.361877 66.941277,662.611206 68.022003,663.996155 
	C73.012520,674.728333 82.338562,679.565002 93.185356,681.848267 
	C99.093285,683.091919 105.215446,683.909729 111.241631,683.913574 
	C280.385742,684.021179 449.529999,684.067200 618.673889,683.853699 
	C630.362366,683.838989 642.096375,682.301147 652.361694,675.246521 
	C661.205627,669.168701 665.891418,660.680725 667.872131,650.580688 
	C669.066589,644.489380 669.907349,638.214600 669.913452,632.021301 
	C670.030701,513.870422 670.092957,395.719269 669.845764,277.568848 
	C669.822876,266.627075 674.934143,260.882996 685.489990,261.987183 
	C687.473206,262.194641 689.475220,262.222992 691.792969,263.012268 
	C696.617371,268.371552 697.089783,274.065979 697.083984,280.270844 
	C696.969116,403.085022 696.816223,525.899963 697.239868,648.712769 
	C697.290771,663.456604 693.350403,676.097961 684.482300,687.079834 
	C672.796631,701.550659 658.392395,711.124023 638.512939,711.104675 
	C455.874786,710.926819 273.236328,710.960083 90.598122,711.112122 
	C80.998520,711.120117 72.693550,708.357849 64.656097,703.624573 
	C62.006439,702.064148 58.954243,701.187256 56.086082,699.997803 
	C56.086086,699.997803 55.994411,700.000793 55.900707,699.753662 
	C55.627525,699.254639 55.388512,699.088257 55.089962,699.007263 
	C55.089962,699.007263 54.991459,699.007263 54.899178,698.756836 
	C54.627537,698.254517 54.388607,698.088135 54.090103,698.007263 
	C54.090103,698.007263 53.991478,698.007324 53.899193,697.756836 
	C53.627487,697.254456 53.388554,697.088074 53.090103,697.007202 
	C53.090103,697.007202 52.991508,697.007263 52.899208,696.756775 
	C52.627491,696.254456 52.388557,696.088074 52.090103,696.007202 
	C52.090103,696.007202 51.991508,696.007263 51.899208,695.756775 
	C51.627480,695.254456 51.388542,695.088074 51.090092,695.007202 
	C51.090092,695.007202 50.991501,695.007263 50.899193,694.756775 
	C50.627472,694.254517 50.388527,694.088135 50.090057,694.007263 
	C50.090057,694.007263 49.991467,694.007324 49.899117,693.756836 
	C49.627316,693.254517 49.388325,693.088135 49.089790,693.007263 
	C49.089790,693.007263 48.991497,693.007263 48.899067,692.756836 
	C48.626995,692.254700 48.387905,692.088318 48.089363,692.007324 
	C48.089363,692.007324 47.989731,692.007446 47.903244,691.762085 
	C47.644974,691.272278 47.414688,691.111938 47.125904,691.035645 
	C47.125904,691.035645 46.976059,690.992981 46.918034,690.738159 
	C46.739231,690.252380 46.555676,690.094177 46.309349,690.008789 
z"
              />
              <path
                fill="#D87628"
                opacity="1.000000"
                stroke="none"
                d="
M169.923950,365.880066 
	C173.792480,356.871521 181.081848,351.744263 189.788208,348.069946 
	C207.801941,340.467712 225.747818,332.704865 243.744705,325.062469 
	C263.623322,316.620972 283.550812,308.294250 303.412720,299.813843 
	C316.120819,294.387848 328.745483,288.766510 341.413422,283.246277 
	C358.760437,275.687012 375.724335,281.248352 383.496368,299.070007 
	C396.192413,328.182678 408.627258,357.409210 421.212677,386.570251 
	C424.830994,394.954071 428.708252,403.329346 426.903961,412.779022 
	C426.214722,416.388824 424.439423,419.791260 422.671753,423.718506 
	C416.628571,428.045502 411.531860,432.983795 405.441742,435.668518 
	C368.241730,452.067017 330.829865,467.985718 293.459015,483.995239 
	C279.371063,490.030487 265.395477,496.403229 251.020844,501.673431 
	C235.760803,507.268219 224.663666,503.685303 215.692017,491.513702 
	C213.537048,488.590118 211.693192,485.339752 210.250061,482.004364 
	C198.406738,454.632080 186.829849,427.143799 174.870560,399.822723 
	C170.072479,388.861450 167.203644,377.833771 169.923950,365.880066 
z"
              />
              <path
                fill="#D87628"
                opacity="1.000000"
                stroke="none"
                d="
M483.210663,479.951569 
	C478.078369,472.651611 475.754272,464.699951 476.883667,455.685364 
	C477.600494,449.963501 477.679596,444.159607 477.992889,438.389709 
	C478.682037,425.696411 479.282104,412.998047 480.025116,400.307983 
	C480.667816,389.330933 482.529938,378.582520 491.562408,371.133057 
	C498.321075,365.558868 506.560577,363.792572 515.346069,364.671234 
	C521.085083,365.245270 526.844849,365.648529 532.603882,365.977600 
	C545.295044,366.702759 557.994263,367.287109 570.684570,368.025269 
	C575.282104,368.292664 580.077881,368.117920 584.404541,369.411530 
	C591.806824,371.624664 598.852295,374.928070 603.887085,382.129395 
	C605.304565,391.125427 607.784668,399.467041 607.568237,407.738037 
	C607.094666,425.831879 605.500916,443.912201 603.887085,461.955292 
	C602.689148,475.347748 598.582642,487.643341 583.934021,491.729675 
	C577.221252,493.602234 569.837891,493.506683 562.758423,493.508789 
	C555.465393,493.510986 548.153748,492.723297 540.882568,491.969452 
	C523.302795,490.146912 505.117340,492.296356 488.479614,484.132507 
	C488.062958,483.928040 487.495789,484.030396 486.998810,483.989655 
	C486.661285,483.916687 486.393799,483.738556 485.988831,483.014221 
	C485.584839,482.305664 485.332733,482.109619 485.025024,481.985107 
	C484.701477,481.877350 484.439087,481.685883 484.046326,480.983093 
	C483.689148,480.301941 483.474426,480.100616 483.210663,479.951569 
z"
              />
              <path
                fill="#AC5A17"
                opacity="1.000000"
                stroke="none"
                d="
M56.184097,700.319031 
	C58.954243,701.187256 62.006439,702.064148 64.656097,703.624573 
	C72.693550,708.357849 80.998520,711.120117 90.598122,711.112122 
	C273.236328,710.960083 455.874786,710.926819 638.512939,711.104675 
	C658.392395,711.124023 672.796631,701.550659 684.482300,687.079834 
	C693.350403,676.097961 697.290771,663.456604 697.239868,648.712769 
	C696.816223,525.899963 696.969116,403.085022 697.083984,280.270844 
	C697.089783,274.065979 696.617371,268.371552 692.052856,263.347168 
	C698.662231,265.753998 700.980896,269.437927 700.986694,277.577209 
	C701.009155,309.235992 701.004761,340.894775 701.006287,372.553558 
	C701.010986,469.695557 701.023254,566.837585 700.962036,663.979492 
	C700.960571,666.390198 702.574646,670.031189 697.795044,670.300598 
	C697.511597,670.316589 697.165222,671.373230 697.054565,671.983032 
	C693.908569,689.324097 681.549988,699.414917 668.069824,708.501038 
	C665.934082,709.940613 662.884949,709.941650 660.468079,711.061096 
	C646.509827,717.526489 631.795959,713.752441 617.538330,713.779541 
	C440.749359,714.115845 263.959534,713.989136 87.169930,714.020630 
	C74.875854,714.022827 65.203484,708.271423 56.184097,700.319031 
z"
              />
              <path
                fill="#AD5A18"
                opacity="1.000000"
                stroke="none"
                d="
M409.982422,237.378571 
	C412.108154,238.552185 414.059418,240.494598 416.407837,241.567688 
	C423.468140,244.793839 430.453278,248.515289 437.876190,250.562164 
	C478.979431,261.896393 520.192505,272.833954 561.403259,283.774078 
	C565.868896,284.959534 570.548706,285.801514 575.151794,285.919098 
	C589.475281,286.285004 599.964905,279.271027 604.207581,265.458649 
	C609.926147,246.841171 614.861511,227.979050 619.936523,209.168900 
	C630.696106,169.288864 641.267761,129.358047 652.061951,89.487427 
	C654.380554,80.923218 654.482971,72.403702 653.109375,63.326885 
	C653.440186,62.965115 653.713196,63.142296 654.125854,63.843418 
	C654.454956,64.534615 654.643982,64.749191 654.903503,64.901741 
	C660.467957,76.004929 657.505005,86.984177 654.521667,98.010139 
	C647.296997,124.711693 640.161804,151.437469 632.981506,178.151062 
	C624.655884,209.126144 616.705383,240.209442 607.833008,271.027252 
	C603.135925,287.342346 588.412598,295.206696 572.621582,291.152313 
	C535.365906,281.586853 498.260437,271.436554 461.088440,261.544373 
	C450.169373,258.638580 439.076355,256.278961 428.353210,252.779861 
	C420.565735,250.238724 413.416626,246.040161 409.982422,237.378571 
z"
              />
              <path
                fill="#AF5B18"
                opacity="1.000000"
                stroke="none"
                d="
M117.112244,254.318665 
	C122.444260,257.111542 127.869034,260.264954 133.343292,263.330017 
	C157.868057,277.061432 184.074432,282.730072 212.139893,280.228943 
	C239.378159,277.801544 263.532227,267.872467 284.512756,250.581650 
	C312.803650,227.266129 329.037750,197.173111 333.037964,160.683594 
	C336.616241,128.043198 328.563049,98.286140 310.211090,71.186554 
	C309.294983,69.833763 308.747681,68.231224 308.013184,66.384666 
	C309.878418,68.015251 312.107666,69.777855 313.584930,72.033020 
	C325.727936,90.570007 334.591980,110.285873 337.122559,132.700531 
	C340.419067,161.899124 336.039673,189.535995 321.834717,215.298538 
	C310.157257,236.477127 293.931061,253.440887 273.113342,266.029022 
	C258.171692,275.064026 242.144592,281.356079 225.000381,283.729797 
	C199.653351,287.239258 174.678009,285.280457 150.789825,274.971588 
	C138.645187,269.730652 127.069496,263.638641 117.112244,254.318665 
z"
              />
              <path
                fill="#AE5A18"
                opacity="1.000000"
                stroke="none"
                d="
M169.606720,366.055481 
	C167.203644,377.833771 170.072479,388.861450 174.870560,399.822723 
	C186.829849,427.143799 198.406738,454.632080 210.250061,482.004364 
	C211.693192,485.339752 213.537048,488.590118 215.692017,491.513702 
	C224.663666,503.685303 235.760803,507.268219 251.020844,501.673431 
	C265.395477,496.403229 279.371063,490.030487 293.459015,483.995239 
	C330.829865,467.985718 368.241730,452.067017 405.441742,435.668518 
	C411.531860,432.983795 416.628571,428.045502 422.500977,424.042603 
	C422.259247,425.397308 421.928833,427.003052 421.106506,428.295929 
	C414.791351,438.224426 404.078400,441.542511 394.118225,445.852753 
	C374.225159,454.461609 354.230011,462.834534 334.284821,471.323242 
	C311.769867,480.905609 289.286560,490.562866 266.740570,500.071625 
	C259.051025,503.314667 251.360229,506.677704 243.411209,509.155792 
	C229.050262,513.632751 214.728836,504.271271 209.120377,491.192230 
	C200.452423,470.978394 191.744919,450.780548 183.239395,430.498291 
	C177.283447,416.295746 171.339539,402.074066 165.974289,387.643768 
	C163.221268,380.239319 165.594086,372.975311 169.606720,366.055481 
z"
              />
              <path
                fill="#AC5918"
                opacity="1.000000"
                stroke="none"
                d="
M68.009720,663.603088 
	C66.941277,662.611206 65.208961,661.361877 64.887657,659.818787 
	C63.071110,651.094360 60.229031,642.303162 60.205673,633.528137 
	C59.896339,517.294495 59.985699,401.059753 60.032497,284.825287 
	C60.035320,277.814148 60.378925,270.831024 56.002926,264.368225 
	C61.500839,265.449951 62.331909,270.010406 62.959686,274.633392 
	C63.159531,276.105072 62.998985,277.626007 62.998989,279.124420 
	C62.999397,394.502838 63.021069,509.881287 62.969028,625.259705 
	C62.963211,638.159607 63.557865,650.925171 68.009720,663.603088 
z"
              />
              <path
                fill="#AD5A18"
                opacity="1.000000"
                stroke="none"
                d="
M487.110718,484.310791 
	C487.495789,484.030396 488.062958,483.928040 488.479614,484.132507 
	C505.117340,492.296356 523.302795,490.146912 540.882568,491.969452 
	C548.153748,492.723297 555.465393,493.510986 562.758423,493.508789 
	C569.837891,493.506683 577.221252,493.602234 583.934021,491.729675 
	C598.582642,487.643341 602.689148,475.347748 603.887085,461.955292 
	C605.500916,443.912201 607.094666,425.831879 607.568237,407.738037 
	C607.784668,399.467041 605.304565,391.125427 604.047363,382.427795 
	C613.296753,391.866791 612.445618,404.053314 611.827454,416.098480 
	C611.516479,422.159454 610.449158,428.179108 610.057922,434.238983 
	C609.260071,446.598236 609.254028,459.035858 607.867493,471.322266 
	C606.426086,484.095306 598.937195,496.749603 583.441223,497.670624 
	C568.614990,498.551849 553.626465,496.733185 538.710754,496.067535 
	C531.609680,495.750641 524.509521,495.398804 517.413818,494.980896 
	C512.642212,494.699890 507.512878,495.265015 503.202820,493.670105 
	C497.537079,491.573547 492.519135,487.726318 487.110718,484.310791 
z"
              />
              <path
                fill="#AF5B18"
                opacity="1.000000"
                stroke="none"
                d="
M113.119637,251.298721 
	C114.284729,251.770050 115.550179,252.560120 116.908463,253.676727 
	C115.740868,253.207993 114.480431,252.412735 113.119637,251.298721 
z"
              />
              <path
                fill="#AF5B18"
                opacity="1.000000"
                stroke="none"
                d="
M307.996124,65.663292 
	C307.372986,65.200745 306.770905,64.399689 306.126984,63.274567 
	C306.729156,63.741932 307.373138,64.533356 307.996124,65.663292 
z"
              />
              <path
                fill="#AC5A17"
                opacity="1.000000"
                stroke="none"
                d="
M46.273788,690.224426 
	C46.555676,690.094177 46.739231,690.252380 46.901314,690.662109 
	C46.602348,690.892639 46.367550,690.759033 46.273788,690.224426 
z"
              />
              <path
                fill="#AC5A17"
                opacity="1.000000"
                stroke="none"
                d="
M55.129417,699.246948 
	C55.388512,699.088257 55.627525,699.254639 55.899132,699.707825 
	C55.626511,699.944702 55.352379,699.803894 55.129417,699.246948 
z"
              />
              <path
                fill="#AC5A17"
                opacity="1.000000"
                stroke="none"
                d="
M54.129501,698.246948 
	C54.388607,698.088135 54.627537,698.254517 54.899078,698.707642 
	C54.626438,698.944702 54.352322,698.804016 54.129501,698.246948 
z"
              />
              <path
                fill="#AC5A17"
                opacity="1.000000"
                stroke="none"
                d="
M53.129501,697.246948 
	C53.388554,697.088074 53.627487,697.254456 53.899090,697.707520 
	C53.626480,697.944641 53.352356,697.803955 53.129501,697.246948 
z"
              />
              <path
                fill="#AC5A17"
                opacity="1.000000"
                stroke="none"
                d="
M52.129501,696.246948 
	C52.388557,696.088074 52.627491,696.254456 52.899101,696.707520 
	C52.626492,696.944641 52.352360,696.803955 52.129501,696.246948 
z"
              />
              <path
                fill="#AC5A17"
                opacity="1.000000"
                stroke="none"
                d="
M51.129498,695.246948 
	C51.388542,695.088074 51.627480,695.254456 51.899097,695.707520 
	C51.626488,695.944641 51.352360,695.803955 51.129498,695.246948 
z"
              />
              <path
                fill="#AC5A17"
                opacity="1.000000"
                stroke="none"
                d="
M50.129486,694.246948 
	C50.388527,694.088135 50.627472,694.254517 50.899086,694.707520 
	C50.626522,694.944641 50.352398,694.803955 50.129486,694.246948 
z"
              />
              <path
                fill="#AC5A17"
                opacity="1.000000"
                stroke="none"
                d="
M49.129311,693.246948 
	C49.388325,693.088135 49.627316,693.254517 49.899014,693.707520 
	C49.626465,693.944641 49.352318,693.803955 49.129311,693.246948 
z"
              />
              <path
                fill="#AC5A17"
                opacity="1.000000"
                stroke="none"
                d="
M48.129044,692.247009 
	C48.387905,692.088318 48.626995,692.254700 48.898949,692.707764 
	C48.626419,692.944763 48.352242,692.804016 48.129044,692.247009 
z"
              />
              <path
                fill="#AC5A17"
                opacity="1.000000"
                stroke="none"
                d="
M47.154705,691.270386 
	C47.414688,691.111938 47.644974,691.272278 47.903099,691.712280 
	C47.634087,691.946960 47.365444,691.812683 47.154705,691.270386 
z"
              />
              <path
                fill="#AD5A18"
                opacity="1.000000"
                stroke="none"
                d="
M485.079773,482.239807 
	C485.332733,482.109619 485.584839,482.305664 485.891113,482.788818 
	C485.712097,482.834473 485.423340,482.664520 485.079773,482.239807 
z"
              />
              <path
                fill="#AD5A18"
                opacity="1.000000"
                stroke="none"
                d="
M483.196808,480.207336 
	C483.474426,480.100616 483.689148,480.301941 483.935364,480.762756 
	C483.738281,480.800964 483.460602,480.632019 483.196808,480.207336 
z"
              />
              <path
                fill="#D87628"
                opacity="1.000000"
                stroke="none"
                d="
M654.910461,64.655121 
	C654.643982,64.749191 654.454956,64.534615 654.228394,64.070656 
	C654.474365,63.924404 654.740051,64.099472 654.910461,64.655121 
z"
              />
              <path
                fill="#AF5B18"
                opacity="1.000000"
                stroke="none"
                d="
M304.861816,61.753197 
	C304.602356,61.889854 304.372894,61.706818 304.119873,61.238113 
	C304.386749,61.045422 304.651886,61.205772 304.861816,61.753197 
z"
              />
              <path
                fill="#AD5A18"
                opacity="1.000000"
                stroke="none"
                d="
M408.238831,235.200867 
	C408.547058,235.083923 408.752838,235.283478 408.955627,235.757080 
	C408.743622,235.794876 408.471497,235.623611 408.238831,235.200867 
z"
              />
              <path
                fill="#AF5B18"
                opacity="1.000000"
                stroke="none"
                d="
M305.944061,62.710304 
	C305.717590,62.892605 305.453918,62.748985 305.130585,62.304729 
	C305.370605,62.063881 305.649231,62.190643 305.944061,62.710304 
z"
              />
            </svg>